inDegrees=no
num_controls=7
num_derivatives=13
num_iterations=136
num_multipliers=7
num_parameters=0
num_slacks=7
num_states=26
objective=0.469794
objective_accelerations=0.063327
objective_balance=0.002086
objective_effort=0.020126
objective_height=0.374754
objective_ligament=0.009501
solver_duration=1867.643552
status=Solve_Succeeded
success=true
DataType=double
version=3
OpenSimVersion=4.5
endheader
time	/jointset/ground_pelvis/pelvis_tilt/value	/jointset/ground_pelvis/pelvis_tx/value	/jointset/ground_pelvis/pelvis_ty/value	/jointset/hip_l/hip_flexion_l/value	/jointset/hip_l/hip_adduction_l/value	/jointset/hip_l/hip_rotation_l/value	/jointset/back/lumbar_extension/value	/jointset/patellofemoral_l/patellar_flexion_l/value	/jointset/knee_l/knee_flexion_l/value	/jointset/knee_l/knee_adduction_l/value	/jointset/knee_l/knee_rotation_l/value	/jointset/ankle_l/ankle_angle_l/value	/jointset/subtalar_l/subtalar_angle_l/value	/jointset/ground_pelvis/pelvis_tilt/speed	/jointset/ground_pelvis/pelvis_tx/speed	/jointset/ground_pelvis/pelvis_ty/speed	/jointset/hip_l/hip_flexion_l/speed	/jointset/hip_l/hip_adduction_l/speed	/jointset/hip_l/hip_rotation_l/speed	/jointset/back/lumbar_extension/speed	/jointset/patellofemoral_l/patellar_flexion_l/speed	/jointset/knee_l/knee_flexion_l/speed	/jointset/knee_l/knee_adduction_l/speed	/jointset/knee_l/knee_rotation_l/speed	/jointset/ankle_l/ankle_angle_l/speed	/jointset/subtalar_l/subtalar_angle_l/speed	/forceset/tau_hip_flexion_l	/forceset/tau_hip_adduction_l	/forceset/tau_hip_rotation_l	/forceset/tau_knee_flexion_l	/forceset/tau_ankle_angle_l	/forceset/tau_subtalar_angle_l	/forceset/tau_lumbar_extension	lambda_cid13_p0	lambda_cid13_p1	lambda_cid13_p2	lambda_cid13_p3	lambda_cid13_p4	lambda_cid13_p5	lambda_cid14_p0	/jointset/ground_pelvis/pelvis_tilt/accel	/jointset/ground_pelvis/pelvis_tx/accel	/jointset/ground_pelvis/pelvis_ty/accel	/jointset/hip_l/hip_flexion_l/accel	/jointset/hip_l/hip_adduction_l/accel	/jointset/hip_l/hip_rotation_l/accel	/jointset/back/lumbar_extension/accel	/jointset/patellofemoral_l/patellar_flexion_l/accel	/jointset/knee_l/knee_flexion_l/accel	/jointset/knee_l/knee_adduction_l/accel	/jointset/knee_l/knee_rotation_l/accel	/jointset/ankle_l/ankle_angle_l/accel	/jointset/subtalar_l/subtalar_angle_l/accel	gamma_cid13_p0	gamma_cid13_p1	gamma_cid13_p2	gamma_cid13_p3	gamma_cid13_p4	gamma_cid13_p5	gamma_cid14_p0
1	-0.829410895532283	-0.1612145967009076	0.6113733245450015	2.026726923518429	-0.3352299380117221	0.04694143023505468	-0.4363305388525182	1.068120394348225	1.068120394348197	-0.002811344722911615	-0.1745277040202927	0.0009653364419273168	0.0854731146624003	-0.1624727426489413	0.01030614957408188	0.03151544245641661	0.0143564951034802	-0.005050619880418741	-0.05684325514364663	1.103287271283057e-05	-0.1616522921394357	-0.1616522921394294	-0.007189730613803014	-2.163516447070427e-05	-0.02496007513849832	-0.01188138868529424	-0.3792132971794588	-0.00932991255818401	-0.005740143231503959	-0.1360566986782797	0.1199250912131667	0.02347779885179175	0.2808421841301564	8.539411655568939	-8.141927665876574	-3.037540531250623	-8.794979353277746	-546.392447253062	-72.46298931483504	-1.952721604456931	3.160922289544958	0.779411747596834	1.810996894317869	-7.689033299608549	-0.2336617048352457	-1.291436864548181	-0.02491622376292091	-3.90291959829708	-3.902919598297169	-0.405484315146964	-0.02394311278911043	0.3623250545825038	-0.1143001840691445	-1.025801853043979e-08	-5.156414580079425e-08	4.572535650674077e-09	1.384780488335068e-09	-9.1638415864968e-09	2.944037782572214e-08	-1.324121690379453e-08
1.01	-0.830878625878204	-0.1610726726178368	0.6117787623967433	2.026487474118768	-0.3352913440509511	0.04630906874836814	-0.4363303615736397	1.066308753733269	1.066308753733243	-0.002902903019990744	-0.1745279055589428	0.0007336050002452058	0.0853493049366208	-0.1310611722304022	0.01808076453116485	0.04955728105447041	-0.06222707089314339	-0.007222955437986232	-0.06962384735242419	2.479059169885951e-05	-0.2006667311319104	-0.2006667311319072	-0.01112073894875114	-1.846480755544766e-05	-0.02140825291693011	-0.01287941332215327	-0.3794597961235134	-0.0090783980254823	-0.005748778887861715	-0.1351491472845071	0.1192543333373215	0.02360180938032137	0.2809253942448302	8.35263961333373	-8.19198501377562	-2.99654712287492	-8.810566713093305	-546.1266439953055	-72.39497920731392	-1.98929438254116	3.133095666835605	0.7767999503696699	1.798547808732658	-7.640124789004075	-0.2078669813388001	-1.270605516414812	0.01457692299157791	-3.899337854168514	-3.899337854168921	-0.3867449622266543	0.01248259274010032	0.3483011968402627	-0.09237267428371887	-9.604307799503887e-09	-6.063135474997622e-08	2.789486165100651e-09	-5.14931100454662e-09	-1.250721875447645e-08	4.068771920126075e-08	-1.615840384264107e-08
1.02	-0.8320318762701743	-0.160852939669074	0.6123641727277023	2.025482767751278	-0.3353742429457799	0.04554905431611908	-0.4363300356869213	1.064107242367499	1.064107242367475	-0.003033738574328937	-0.1745280682974616	0.0005367298589582257	0.0852155511503148	-0.09957675185877413	0.02586792271247487	0.06750993829986517	-0.1386948984623594	-0.009349191000405561	-0.08237384425609286	4.075444117324587e-05	-0.2396264423022195	-0.2396264423022189	-0.01504518206601624	-1.387513830996035e-05	-0.01798881505951055	-0.01387020079058982	-0.3797062950675666	-0.008826883492781094	-0.005757414544201499	-0.1342415958907346	0.1185835754614756	0.02372581990885009	0.2810086043595056	8.162194868575984	-8.243091356950149	-2.953453447611845	-8.847639865425379	-545.9469544837383	-72.32557372009232	-2.034241802661509	3.175492280162758	0.7819203924422479	1.79316062378606	-7.665885614127032	-0.2244417058056116	-1.2853178035264	-0.02447499766527796	-3.891974033863958	-3.891974033863941	-0.4041712716103583	-0.02365925032306103	0.335848181752779	-0.1128527503846422	-8.804370472037559e-09	-6.920538091377407e-08	6.620176958823742e-10	-1.153683428097667e-08	-1.552072888858975e-08	5.063347096945409e-08	-1.8788864640202e-08
1.03	-0.8328699228321296	-0.1605552610825121	0.6131285879473131	2.023714105396579	-0.33547815931137	0.04466171801992917	-0.4363295759360244	1.061516491036474	1.061516491036446	-0.003203792287393007	-0.1745281980412987	0.0003733348121584395	0.0850719237880298	-0.0680225876083532	0.03367083563573665	0.08535066895045076	-0.2150026416928203	-0.01142334727692617	-0.09508528267939173	4.950572840484646e-05	-0.2785067987493159	-0.2785067987493156	-0.01896317960751448	-1.140561958782201e-05	-0.01471725633084777	-0.01485252581123273	-0.3795649463095476	-0.008502739382121403	-0.005756819290928635	-0.1332854528292291	0.1178103238960181	0.02388909251499176	0.2808634024883431	7.958355609434514	-8.311987560407987	-2.90400162947294	-8.863503979773549	-545.4468304492101	-72.26715905611083	-2.087838163825234	3.146871387382114	0.7799292743715912	1.776160060505739	-7.607982497795571	-0.1972810482102507	-1.26285573487774	0.0132966903399459	-3.883508377895875	-3.883508377895941	-0.3852761714372885	0.01230512747299549	0.3187463891236828	-0.09049783576736882	-8.002941036443369e-09	-7.777437460017004e-08	-1.468965252760852e-09	-1.792286196336128e-08	-1.853087303256155e-08	6.056594121104187e-08	-2.141639966081104e-08
1.04	-0.8333921291736008	-0.1601794628602968	0.6140707366283918	2.021183412845517	-0.3356024929316523	0.04364750756487667	-0.4363290793725694	1.058537447755424	1.058537447755394	-0.003412958411072672	-0.1745282820750473	0.0002418426867857797	0.08491855808396571	-0.0364087077619176	0.04149184984313813	0.1030566305934735	-0.2911009377348791	-0.01343264193884518	-0.1077486760285355	4.811695253927595e-05	-0.3172848323069484	-0.3172848323069486	-0.02286766418972234	-4.733120739915384e-06	-0.0116082307741588	-0.01581786914640586	-0.3794235975515279	-0.008178595271462473	-0.005756224037629502	-0.1323293097677234	0.11703707233056	0.02405236512113216	0.2807182006171814	7.750731335510416	-8.38197784254116	-2.852368407115587	-8.899807057972309	-545.0337964007468	-72.20827257878797	-2.150364714574229	3.187435399365687	0.7855406492701901	1.766206822273484	-7.623996176446599	-0.2114693828852891	-1.275708788695379	-0.02650301028474342	-3.871509455971191	-3.871509455971194	-0.40146867975228	-0.02281865429790263	0.3033415473580232	-0.1094564132906828	-7.376854582180849e-09	-8.54470940991447e-08	-3.341696719855871e-09	-2.320186303225793e-08	-2.147945219558904e-08	6.897901234433275e-08	-2.367081318363017e-08
